<?xml version="1.0" encoding="UTF-8"?>
<svg id="Warstwa_1" data-name="Warstwa 1" xmlns="http://www.w3.org/2000/svg" viewBox="0 0 772.71 521.42">
  <defs>
    <style>
      .cls-1 {
        letter-spacing: 0em;
      }

      .cls-2 {
        font-family: Montserrat-Bold, Montserrat;
        font-size: 130px;
        font-weight: 700;
      }

      .cls-2, .cls-3 {
        fill: #fff;
      }

      .cls-3, .cls-4 {
        stroke-width: 0px;
      }

      .cls-5 {
        letter-spacing: -.02em;
      }

      .cls-4 {
        fill: #f16a24;
      }
    </style>
  </defs>
  <g>
    <polygon class="cls-3" points="33.9 278.5 33.9 323.5 92.2 323.5 133.44 278.5 33.9 278.5"/>
    <polygon id="gwozdz" class="cls-3" points="478.17 129.88 448.51 162.22 596.3 323.5 655.59 323.5 478.17 129.88"/>
    <path id="mlotek" class="cls-4" d="M436.32,84.24c-5.07-3.61-18.78-19.98-19.1-24.36s2.68-7.06,5.41-10.05l-32.14-29.5-5.2,5.66S365.4,0,333.4,0s-42.5,11.5-42.5,11.5c0,0,28.5,6.5,40.5,18.5s17.85,35.26,17.85,35.26L112.2,323.5h59.28s166.92-181.5,201.42-219.42c11.79-11.79,31.5,14.92,31.5,14.92l-7.53,8.22,29.68,32.39c19.41-21.15,36.36-39.65,47.63-51.98l-29.64-32.35-8.22,8.95Z"/>
    <polygon class="cls-4" points="733.9 278.5 733.9 323.5 675.59 323.5 634.36 278.5 733.9 278.5"/>
    <g id="okno">
      <path class="cls-3" d="M442.7,270.59c-2.92,27.65-24.88,49.62-52.53,52.54v-52.54h52.53Z"/>
      <path class="cls-3" d="M390.17,258.04v-52.54c27.65,2.92,49.62,24.89,52.53,52.54h-52.53Z"/>
      <path class="cls-3" d="M325.09,270.59c2.92,27.65,24.88,49.62,52.53,52.54v-52.54s-52.53,0-52.53,0Z"/>
      <path class="cls-3" d="M377.62,258.04v-52.54c-27.65,2.92-49.62,24.89-52.53,52.54h52.53Z"/>
    </g>
  </g>
  <text class="cls-2" transform="translate(0 486.84)"><tspan class="cls-1" x="0" y="0">P</tspan><tspan x="93.86" y="0">iotr Jan</tspan><tspan class="cls-5" x="607.87" y="0">k</tspan><tspan x="690.68" y="0">e</tspan></text>
</svg>