<?xml version="1.0" encoding="UTF-8"?>
<svg id="Warstwa_1" data-name="Warstwa 1" xmlns="http://www.w3.org/2000/svg" viewBox="0 0 757.77 488.4">
  <defs>
    <style>
      .cls-1 {
        fill: #fff;
      }

      .cls-1, .cls-2 {
        stroke-width: 0px;
      }

      .cls-2 {
        fill: #f16a24;
      }
    </style>
  </defs>
  <g>
    <polygon class="cls-1" points="23.11 278.5 23.11 323.5 81.41 323.5 122.65 278.5 23.11 278.5"/>
    <polygon id="gwozdz" class="cls-1" points="467.38 129.88 437.72 162.22 585.5 323.5 644.8 323.5 467.38 129.88"/>
    <path id="mlotek" class="cls-2" d="M425.52,84.24c-5.07-3.61-18.78-19.98-19.1-24.36s2.68-7.06,5.41-10.05l-32.14-29.5-5.2,5.66S354.61,0,322.61,0s-42.5,11.5-42.5,11.5c0,0,28.5,6.5,40.5,18.5s17.85,35.26,17.85,35.26L101.41,323.5h59.28s166.92-181.5,201.42-219.42c11.79-11.79,31.5,14.92,31.5,14.92l-7.53,8.22,29.68,32.39c19.41-21.15,36.36-39.65,47.63-51.98l-29.64-32.35-8.22,8.95Z"/>
    <polygon class="cls-2" points="723.11 278.5 723.11 323.5 664.8 323.5 623.57 278.5 723.11 278.5"/>
    <g id="okno">
      <path class="cls-1" d="M431.91,270.59c-2.92,27.65-24.88,49.62-52.53,52.54v-52.54h52.53Z"/>
      <path class="cls-1" d="M379.38,258.04v-52.54c27.65,2.92,49.62,24.89,52.53,52.54h-52.53Z"/>
      <path class="cls-1" d="M314.3,270.59c2.92,27.65,24.88,49.62,52.53,52.54v-52.54s-52.53,0-52.53,0Z"/>
      <path class="cls-1" d="M366.83,258.04v-52.54c-27.65,2.92-49.62,24.89-52.53,52.54h52.53Z"/>
    </g>
  </g>
  <g>
    <path class="cls-1" d="M78.91,428.86c0,20.28-15.21,32.89-39.52,32.89h-18.33v25.09H0v-91h39.39c24.31,0,39.52,12.61,39.52,33.02ZM57.59,428.86c0-10.01-6.5-15.86-19.37-15.86h-17.16v31.59h17.16c12.87,0,19.37-5.85,19.37-15.73Z"/>
    <path class="cls-1" d="M89.96,395.83c0-6.37,5.07-11.31,12.61-11.31s12.61,4.68,12.61,10.92c0,6.76-5.07,11.7-12.61,11.7s-12.61-4.94-12.61-11.31ZM92.43,416.9h20.28v69.94h-20.28v-69.94Z"/>
    <path class="cls-1" d="M126.36,451.87c0-21.06,16.25-36.01,38.48-36.01s38.35,14.95,38.35,36.01-16.12,36.01-38.35,36.01-38.48-14.95-38.48-36.01ZM182.65,451.87c0-12.09-7.67-19.37-17.81-19.37s-17.94,7.28-17.94,19.37,7.8,19.37,17.94,19.37,17.81-7.28,17.81-19.37Z"/>
    <path class="cls-1" d="M261.82,483.46c-4.16,2.99-10.27,4.42-16.51,4.42-16.51,0-26.13-8.45-26.13-25.09v-28.73h-10.79v-15.6h10.79v-17.03h20.28v17.03h17.42v15.6h-17.42v28.47c0,5.98,3.25,9.23,8.71,9.23,2.99,0,5.98-.91,8.19-2.6l5.46,14.3Z"/>
    <path class="cls-1" d="M316.68,415.86v18.72c-1.69-.13-2.99-.26-4.55-.26-11.18,0-18.59,6.11-18.59,19.5v33.02h-20.28v-69.94h19.37v9.23c4.94-6.76,13.26-10.27,24.05-10.27Z"/>
    <path class="cls-1" d="M354.64,475.14l11.7-14.04c4.94,6.63,10.4,10.01,16.9,10.01,8.45,0,12.87-5.07,12.87-15.08v-43.29h-31.98v-16.9h52.91v59.02c0,22.49-11.31,33.54-32.76,33.54-12.22,0-23.01-4.68-29.64-13.26Z"/>
    <path class="cls-1" d="M498.29,446.93v39.91h-18.98v-8.71c-3.77,6.37-11.05,9.75-21.32,9.75-16.38,0-26.13-9.1-26.13-21.19s8.71-20.93,30.03-20.93h16.12c0-8.71-5.2-13.78-16.12-13.78-7.41,0-15.08,2.47-20.15,6.5l-7.28-14.17c7.67-5.46,18.98-8.45,30.16-8.45,21.32,0,33.67,9.88,33.67,31.07ZM478.01,464.74v-7.15h-13.91c-9.49,0-12.48,3.51-12.48,8.19,0,5.07,4.29,8.45,11.44,8.45,6.76,0,12.61-3.12,14.95-9.49Z"/>
    <path class="cls-1" d="M588.12,446.8v40.04h-20.28v-36.92c0-11.31-5.2-16.51-14.17-16.51-9.75,0-16.77,5.98-16.77,18.85v34.58h-20.28v-69.94h19.37v8.19c5.46-5.98,13.65-9.23,23.14-9.23,16.51,0,28.99,9.62,28.99,30.94Z"/>
    <path class="cls-1" d="M636.47,459.41l-9.75,9.62v17.81h-20.28v-96.46h20.28v54.6l29.64-28.08h24.18l-29.12,29.64,31.72,40.3h-24.57l-22.1-27.43Z"/>
    <path class="cls-1" d="M757.37,457.59h-52.91c1.95,8.71,9.36,14.04,20.02,14.04,7.41,0,12.74-2.21,17.55-6.76l10.79,11.7c-6.5,7.41-16.25,11.31-28.86,11.31-24.18,0-39.91-15.21-39.91-36.01s15.99-36.01,37.31-36.01,36.4,13.78,36.4,36.27c0,1.56-.26,3.77-.39,5.46ZM704.2,445.76h34.45c-1.43-8.84-8.06-14.56-17.16-14.56s-15.86,5.59-17.29,14.56Z"/>
  </g>
</svg>