<?xml version="1.0" encoding="UTF-8"?>
<svg id="Warstwa_1" data-name="Warstwa 1" xmlns="http://www.w3.org/2000/svg" viewBox="0 0 700 323.5">
  <defs>
    <style>
      .cls-1 {
        fill: #fff;
      }

      .cls-1, .cls-2 {
        stroke-width: 0px;
      }

      .cls-2 {
        fill: #f16a24;
      }
    </style>
  </defs>
  <polygon class="cls-1" points="0 278.5 0 323.5 58.3 323.5 99.54 278.5 0 278.5"/>
  <polygon id="gwozdz" class="cls-1" points="444.28 129.88 414.61 162.22 562.4 323.5 621.7 323.5 444.28 129.88"/>
  <path id="mlotek" class="cls-2" d="M402.42,84.24c-5.07-3.61-18.78-19.98-19.1-24.36s2.68-7.06,5.41-10.05l-32.14-29.5-5.2,5.66S331.5,0,299.5,0s-42.5,11.5-42.5,11.5c0,0,28.5,6.5,40.5,18.5s17.85,35.26,17.85,35.26L78.3,323.5h59.28s166.92-181.5,201.42-219.42c11.79-11.79,31.5,14.92,31.5,14.92l-7.53,8.22,29.68,32.39c19.41-21.15,36.36-39.65,47.63-51.98l-29.64-32.35-8.22,8.95Z"/>
  <polygon class="cls-2" points="700 278.5 700 323.5 641.7 323.5 600.46 278.5 700 278.5"/>
  <g id="okno">
    <path class="cls-1" d="M408.81,270.59c-2.92,27.65-24.88,49.62-52.53,52.54v-52.54h52.53Z"/>
    <path class="cls-1" d="M356.27,258.04v-52.54c27.65,2.92,49.62,24.89,52.53,52.54h-52.53Z"/>
    <path class="cls-1" d="M291.19,270.59c2.92,27.65,24.88,49.62,52.53,52.54v-52.54s-52.53,0-52.53,0Z"/>
    <path class="cls-1" d="M343.73,258.04v-52.54c-27.65,2.92-49.62,24.89-52.53,52.54h52.53Z"/>
  </g>
</svg>